<?xml version="1.0" standalone="no"?>
<!DOCTYPE svg PUBLIC "-//W3C//DTD SVG 20010904//EN"
 "http://www.w3.org/TR/2001/REC-SVG-20010904/DTD/svg10.dtd">
<svg version="1.0" xmlns="http://www.w3.org/2000/svg"
 width="25.000000pt" height="25.000000pt" viewBox="0 0 512.000000 512.000000"
 preserveAspectRatio="xMidYMid meet">

<g transform="translate(0.000000,512.000000) scale(0.100000,-0.100000)"
fill="#ffffff" stroke="none">
<path d="M1261 3839 c-28 -6 -144 -117 -642 -616 -410 -410 -610 -617 -614
-635 -4 -16 -4 -40 0 -55 8 -35 1195 -1229 1241 -1249 83 -36 173 50 149 143
-4 19 -171 192 -498 520 l-491 493 2316 2 2317 3 28 21 c15 11 35 39 43 62 13
37 12 45 -3 76 -9 19 -29 43 -44 53 -26 17 -133 18 -2342 21 l-2315 2 486 488
c268 268 492 500 497 515 18 46 13 83 -14 115 -31 37 -69 51 -114 41z"/>
</g>
</svg>
