<?xml version="1.0" standalone="no"?>
<!DOCTYPE svg PUBLIC "-//W3C//DTD SVG 20010904//EN"
 "http://www.w3.org/TR/2001/REC-SVG-20010904/DTD/svg10.dtd">
<svg version="1.0" xmlns="http://www.w3.org/2000/svg"
 width="15.000000pt" height="15.000000pt" viewBox="0 0 512.000000 512.000000"
 preserveAspectRatio="xMidYMid meet">

<g transform="translate(0.000000,512.000000) scale(0.100000,-0.100000)"
fill="#000000" stroke="none">
<path d="M91 5103 c-50 -26 -74 -64 -74 -117 0 -52 21 -89 66 -116 85 -52 197
9 199 107 1 105 -102 173 -191 126z"/>
<path d="M639 5097 c-75 -50 -86 -137 -26 -204 82 -89 227 -30 227 92 0 106
-115 170 -201 112z"/>
<path d="M1202 5100 c-65 -40 -87 -109 -56 -176 44 -92 181 -99 234 -11 72
117 -62 257 -178 187z"/>
<path d="M1763 5104 c-94 -46 -96 -191 -4 -239 118 -61 249 71 181 183 -40 65
-112 88 -177 56z"/>
<path d="M2323 5105 c-94 -40 -96 -192 -4 -240 126 -64 257 89 170 199 -42 53
-103 68 -166 41z"/>
<path d="M3490 5109 c-30 -12 -435 -413 -456 -451 -19 -36 -18 -81 2 -121 18
-36 357 -383 418 -428 75 -56 177 -30 210 52 28 71 15 101 -87 207 l-91 92
348 0 c402 0 449 -6 591 -75 150 -73 249 -166 330 -310 72 -130 78 -164 84
-520 7 -367 8 -372 87 -407 75 -33 148 -3 178 72 13 33 16 82 16 269 0 126 -5
274 -10 330 -24 235 -115 432 -278 603 -101 106 -239 198 -366 245 -151 55
-156 56 -578 60 -219 3 -398 8 -398 11 0 4 38 46 85 92 92 91 109 124 95 185
-18 80 -103 124 -180 94z"/>
<path d="M83 4540 c-45 -27 -66 -64 -66 -115 0 -104 113 -169 200 -115 45 27
65 62 65 115 0 26 -8 57 -17 71 -23 36 -74 64 -115 64 -19 0 -49 -9 -67 -20z"/>
<path d="M2313 4541 c-115 -73 -62 -251 75 -251 40 0 94 38 116 83 24 50 15
98 -28 144 -42 46 -112 56 -163 24z"/>
<path d="M95 3991 c-86 -38 -106 -165 -35 -225 129 -108 300 67 187 190 -28
31 -41 37 -83 40 -27 2 -58 0 -69 -5z"/>
<path d="M2313 3980 c-88 -53 -82 -190 10 -233 43 -21 67 -21 111 -3 69 29 99
102 71 174 -31 75 -122 105 -192 62z"/>
<path d="M80 3423 c-76 -52 -85 -152 -19 -214 70 -65 182 -37 213 55 19 54 5
103 -38 144 -30 27 -43 32 -84 32 -28 0 -57 -7 -72 -17z"/>
<path d="M2289 3401 c-34 -34 -39 -44 -39 -86 0 -61 24 -100 78 -126 71 -35
148 -6 178 67 18 44 18 68 -3 111 -22 48 -66 73 -127 73 -43 0 -53 -4 -87 -39z"/>
<path d="M112 2883 c-34 -7 -92 -69 -94 -101 -5 -102 43 -162 132 -162 76 0
131 53 132 128 1 91 -78 154 -170 135z"/>
<path d="M666 2880 c-62 -19 -104 -89 -90 -152 15 -72 62 -108 140 -108 41 0
51 5 85 39 34 34 39 44 39 86 0 60 -24 100 -75 125 -45 22 -55 23 -99 10z"/>
<path d="M1223 2879 c-17 -5 -43 -23 -57 -39 -77 -92 -16 -220 104 -220 146 0
179 198 43 256 -36 16 -45 16 -90 3z"/>
<path d="M1775 2876 c-98 -45 -113 -169 -29 -235 60 -47 170 -16 201 56 45
110 -67 227 -172 179z"/>
<path d="M2325 2872 c-86 -40 -102 -154 -31 -219 30 -28 43 -33 83 -33 60 0
104 26 127 75 54 114 -64 230 -179 177z"/>
<path d="M2664 2481 c-68 -41 -64 34 -64 -1228 0 -1270 -5 -1181 69 -1230 l34
-23 1146 0 c1071 0 1148 1 1180 18 19 9 44 30 55 45 21 28 21 31 21 1185 0
1116 -1 1158 -19 1188 -41 69 50 64 -1233 64 -1115 0 -1159 -1 -1189 -19z
m2166 -1231 l0 -980 -980 0 -980 0 0 980 0 980 980 0 980 0 0 -980z"/>
<path d="M82 1970 c-33 -15 -47 -29 -62 -62 -18 -39 -20 -67 -20 -274 0 -128
5 -277 10 -333 24 -231 114 -429 270 -595 137 -145 274 -227 485 -289 64 -19
103 -21 468 -24 218 -3 397 -8 397 -11 0 -4 -38 -46 -85 -92 -97 -96 -115
-134 -96 -193 14 -40 59 -84 97 -93 13 -3 41 -3 62 1 31 6 69 39 250 218 118
117 220 224 228 239 17 32 18 76 4 114 -12 30 -334 362 -413 425 -41 32 -56
39 -94 39 -61 0 -106 -29 -127 -81 -28 -71 -15 -101 87 -206 l91 -93 -348 0
c-395 0 -447 6 -583 70 -190 89 -325 240 -391 437 -25 76 -26 88 -32 398 -6
364 -7 371 -83 406 -52 23 -62 23 -115 -1z"/>
</g>
</svg>
